<?xml version="1.0" encoding="UTF-8"?>
<!DOCTYPE svg PUBLIC "-//W3C//DTD SVG 1.1//EN" "http://www.w3.org/Graphics/SVG/1.1/DTD/svg11.dtd">
<!-- Creator: CorelDRAW -->
<svg xmlns="http://www.w3.org/2000/svg" xml:space="preserve" width="144.388mm" height="124.118mm" version="1.1" style="shape-rendering:geometricPrecision; text-rendering:geometricPrecision; image-rendering:optimizeQuality; fill-rule:evenodd; clip-rule:evenodd"
viewBox="0 0 392246.37 337181.43"
 xmlns:xlink="http://www.w3.org/1999/xlink"
 xmlns:xodm="http://www.corel.com/coreldraw/odm/2003">
 <defs>
  <style type="text/css">
   <![CDATA[
    .fil0 {fill:black}
   ]]>
  </style>
 </defs>
 <g id="Слой_x0020_1">
  <metadata id="CorelCorpID_0Corel-Layer"/>
  <path class="fil0" d="M28345.96 103334.54c0,-22576.69 4672.03,-40885.85 19723.7,-56120.61 6473.15,-6551.93 13368.45,-9619.8 22623.96,-13383.12 9480.17,-3854.6 33779.73,-7078.68 46792.04,-3547.63 21473.47,5827.14 35937.81,17146.45 51639.83,31099.79 4647.31,4129.52 9772.74,8068.34 13973.17,13606.43 7093.62,9352.21 18964.13,9286.2 25726.6,443.62 2874.72,-3758.71 5688.59,-6170.52 8933.85,-9452.73l19972 -16800.9c11056.07,-9034.1 33054.39,-21335.19 51340.46,-20326.24 12916.68,712.84 21490.86,627.81 31399.16,4527.51 20125.49,7920.56 30009.34,16166.57 37858.18,35688.15 8993.08,22368.05 6886.89,48674.38 -3866.56,70028.04 -5112.12,10151.71 -16343.42,25763.27 -24084.95,33372.78l-11096.01 11887.36c-2350.41,2377.58 -3874.43,3149.37 -6150.96,5340.59l-17227.68 17246.96c-2447.4,2155.36 -3701.93,2922.26 -6124.6,5367.21l-34841.38 34108.17c-2278.7,2254.79 -3827.71,2997.51 -6155.03,5336.52l-52658.56 50765.9 -52280.14 -50378.24c-2350.41,-2377.58 -3874.43,-3149.37 -6150.96,-5340.59l-17227.68 -17246.96c-2447.4,-2155.09 -3701.93,-2922.26 -6124.6,-5366.94l-57540.59 -57375.42c-14361.65,-17796.26 -28453.26,-37766.36 -28453.26,-63479.65zm363900.41 -9862.39l0 14985.11c-520.5,7837.7 -1878.81,15359.46 -4117.3,22170.28 -11422.27,34754.99 -28322.87,53028.84 -54298.31,79004.28l-30638.51 29118.02c-6000.18,5283.81 -11672.47,11982.44 -20684.84,19918.75 -1193.14,1050.79 -1924.99,1905.16 -3070.86,3057.82 -4605.2,4632.37 -8690.99,8899.35 -13390.73,13423.06 -1698.43,1634.86 -2123.85,1672.62 -3811.68,3083.36l-23403.9 22562.29c-4502.79,4555.49 -8515.5,8484.26 -13013.66,13034.04 -2643.26,2673.15 -4648.4,3824.99 -7291.39,6498.41 -17905.74,18110.57 -20993.99,23823.07 -38681.86,6135.47l-13800.94 -13012.58c-4651.66,-4675.02 -8751.3,-8747.77 -13395.08,-13418.71 -1257.52,-1264.86 -2121.95,-2275.16 -3482.43,-3412.34 -8869.74,-7414.18 -29585.28,-28121.57 -37505.02,-36041.58l-47491.83 -45972.98c-2548.73,-2577.79 -4399.28,-3584.84 -6912.69,-6111.02 -17665.87,-17755.24 -29100.09,-29248.69 -41973.58,-51491.23 -1872.56,-3235.49 -2528.62,-5051.27 -4300.67,-8723.32 -8675.23,-17973.93 -10981.09,-31750.96 -10981.09,-51839.5 0,-11725.45 3257.76,-27537.22 6656.25,-36245.87l6875.48 -14575.45c11347.02,-22494.37 38092.62,-37879.1 62881.99,-42840.72 50677.06,-10143.56 75979.87,8900.71 108544.73,34345.06 4162.67,3252.6 6576.38,7092.26 11164.74,9520.1 4373.2,-2314.01 7549.2,-6583.98 11598.85,-9852.07 32845.21,-26506.54 59604.4,-43804.3 108751.74,-33888.12 23563.09,4754.35 41005.92,15484.7 54099.18,30938.69 12793.89,15101.11 20265.66,37627.54 21673.41,59630.75z"/>
 </g>
</svg>
