<?xml version="1.0" encoding="UTF-8"?>
<!DOCTYPE svg PUBLIC "-//W3C//DTD SVG 1.1//EN" "http://www.w3.org/Graphics/SVG/1.1/DTD/svg11.dtd">
<!-- Creator: CorelDRAW -->
<svg xmlns="http://www.w3.org/2000/svg" xml:space="preserve" width="135.485mm" height="135.43mm" version="1.1" style="shape-rendering:geometricPrecision; text-rendering:geometricPrecision; image-rendering:optimizeQuality; fill-rule:evenodd; clip-rule:evenodd"
viewBox="0 0 38487.48 38471.77"
 xmlns:xlink="http://www.w3.org/1999/xlink"
 xmlns:xodm="http://www.corel.com/coreldraw/odm/2003">
 <defs>
  <style type="text/css">
   <![CDATA[
    .fil0 {fill:black}
   ]]>
  </style>
 </defs>
 <g id="Слой_x0020_1">
  <metadata id="CorelCorpID_0Corel-Layer"/>
  <g id="_2113972452208">
   <path class="fil0" d="M4209.56 6223.48c-3482.43,518.09 -4124.91,3087.94 -4209.56,5849.9l0 1798.68c63.15,3869.33 -0.48,7795.48 0.03,11670.29l-0.03 10.17 0 7238.84c117.07,1532.11 374.38,2871.53 897.98,3579.66 997.77,1349.42 2419.8,1899.01 3987.39,2100.73l16994.72 0 442.1 -3.58c192.12,-1.62 387.47,-0.06 585.21,3.58l4515.14 0c1703.74,-192.97 3247.87,-797.47 4237.37,-2467.64 1163.24,-1963.44 536.72,-8512.05 673.42,-11140.02 53.66,-1031.58 344.75,-4500.76 -1720.16,-3879.05 -1638.64,493.37 -1061.43,3642.33 -1048.17,4947.35 19.86,1957.33 -24.63,3904.58 2.13,5874.13 24.15,1779.39 144.93,3528.96 -2023.52,3839.79 -1117.11,160.13 -9862.89,44.12 -11757.73,44.12 -2039.43,0 -10209.09,250.18 -11563.14,-163.54 -1794.93,-548.37 -1484.5,-2910.99 -1454.02,-4409.29 40.31,-1982.19 12.87,-3967.68 12.61,-5951.12 -0.51,-3899.19 63.66,-7848.26 -14.18,-11740.8 -30.48,-1523.33 -329.58,-3828.2 1513.7,-4349.61 1811.18,-512.32 9838.12,184.28 11658.02,-117.01 2079.77,-344.35 2112.75,-2510.68 11.9,-2847.36 -1136.94,-182.23 -4433.75,46.3 -5866.15,38.12 -1633.95,-9.32 -4343.05,-154.31 -5875.07,73.63z"/>
   <path class="fil0" d="M13305.23 25166.53c0,-1111.8 198.76,-2370.77 287.28,-3471.26 106.61,-1325.5 527.75,-1365.42 1460.44,-2298.11l7592.28 -7592.25c995.21,-995.24 2795.86,-3017.63 3814.9,-3777.35l3966.8 4001.34c-146.64,301.63 -9691.54,9729.12 -11314.75,11352.33 -853.35,853.35 -1030.47,1401.69 -2264.67,1493.84 -1069.61,79.88 -2518.63,325.46 -3542.28,291.46zm25182.24 -18723.94l0 329.27c-131.81,2145.53 -4772.54,5990.66 -6370.72,7588.87l-10524.49 10523.35c-1446.35,1444.39 -2066.11,2530.05 -4241.69,2749.13 -7081.83,713.1 -7162.57,1053.25 -6554.34,-6027.67 227.97,-2653.96 828.29,-2670.64 2564.99,-4426.31l10499.44 -10548.38c1485.78,-1482.77 5626.57,-6268.08 7410.42,-6571.39 2206.15,-375.12 3071.06,1094.36 4455.14,2460.57 1156.28,1141.37 2666.86,2208.14 2761.26,3922.57zm-10091.28 -351.08l3410.98 -3443.17 118.86 -11.48 3877 3877.71 -2.95 166.15 -3380.25 3397.55 -4023.64 -3986.77z"/>
  </g>
 </g>
</svg>
