<?xml version="1.0" encoding="UTF-8"?>
<!DOCTYPE svg PUBLIC "-//W3C//DTD SVG 1.1//EN" "http://www.w3.org/Graphics/SVG/1.1/DTD/svg11.dtd">
<!-- Creator: CorelDRAW -->
<svg xmlns="http://www.w3.org/2000/svg" xml:space="preserve" width="135.401mm" height="136.133mm" version="1.1" style="shape-rendering:geometricPrecision; text-rendering:geometricPrecision; image-rendering:optimizeQuality; fill-rule:evenodd; clip-rule:evenodd"
viewBox="0 0 9554.54 9606.17"
 xmlns:xlink="http://www.w3.org/1999/xlink"
 xmlns:xodm="http://www.corel.com/coreldraw/odm/2003">
 <defs>
  <style type="text/css">
   <![CDATA[
    .fil0 {fill:black}
   ]]>
  </style>
 </defs>
 <g id="Слой_x0020_1">
  <metadata id="CorelCorpID_0Corel-Layer"/>
  <g id="_2302383117792">
   <path class="fil0" d="M-0 9295.52c0,244.42 195.46,310.65 406.23,310.65 131.67,0 1857.82,-674.18 2033.94,-738 169.57,-61.45 341.46,-130.35 502.65,-190.33 745.95,-277.58 672.68,-381.23 1185.21,-893.74 114.88,-114.88 241.46,-227.61 346.31,-346.68 63.24,-71.81 82.88,-107.46 155.4,-179.14l2228.41 -2311.83 -2252.1 -2264.23c-108.35,70.4 -2722.72,2710.78 -2807.87,2795.91 -797.18,797.18 -716.21,624.54 -1078.08,1717.74 -106.09,320.48 -720.08,2017.07 -720.08,2099.64z"/>
   <path class="fil0" d="M6045.67 1218.69l2264.17 2276.06 824.38 -812.43c134.91,-134.86 279.07,-277.64 349.75,-462.71 268.24,-702.39 -279.67,-1056.29 -779.87,-1556.49 -141.28,-141.28 -265.02,-264.51 -405.87,-406.59 -192.2,-193.87 -378.28,-256.52 -675.42,-256.52 -405.95,0 -654.55,308.06 -866.22,519.74 -121.34,121.34 -225.16,225.16 -346.49,346.49 -101.31,101.31 -258.56,281.58 -364.42,352.46z"/>
   <path class="fil0" d="M5084 2192.6c83.1,121.23 1698.46,1710.41 1971.27,1983.21 80.3,80.3 196.01,239.81 304.68,268.83l483.74 -472.09 -2270.06 -2257.92 -489.63 477.97z"/>
  </g>
 </g>
</svg>
