<?xml version="1.0" encoding="UTF-8"?>
<!DOCTYPE svg PUBLIC "-//W3C//DTD SVG 1.1//EN" "http://www.w3.org/Graphics/SVG/1.1/DTD/svg11.dtd">
<!-- Creator: CorelDRAW -->
<svg xmlns="http://www.w3.org/2000/svg" xml:space="preserve" width="57.1184mm" height="72.3878mm" version="1.1" style="shape-rendering:geometricPrecision; text-rendering:geometricPrecision; image-rendering:optimizeQuality; fill-rule:evenodd; clip-rule:evenodd"
viewBox="0 0 3716.56 4710.1"
 xmlns:xlink="http://www.w3.org/1999/xlink"
 xmlns:xodm="http://www.corel.com/coreldraw/odm/2003">
 <defs>
  <style type="text/css">
   <![CDATA[
    .fil0 {fill:#000001}
   ]]>
  </style>
 </defs>
 <g id="Слой_x0020_1">
  <metadata id="CorelCorpID_0Corel-Layer"/>
  <g id="_1955186150880">
   <path class="fil0" d="M607.16 4415.72l0 -2962.21 2502.24 0 0 2962.21c0,28.28 -26.95,36.8 -55.2,36.8l-2391.85 0c-28.25,0 -55.2,-8.52 -55.2,-36.8zm-340.38 -3532.58l3183 0 0 303.58 -3183 0 0 -303.58zm965.94 -551.96c0,-44.5 29.1,-73.6 73.6,-73.6l1103.92 0c44.5,0 73.6,29.1 73.6,73.6l0 285.18 -1251.12 0 0 -285.18zm-257.58 -55.2l0 340.37 -735.95 0c-135.54,0 -239.18,94.17 -239.18,229.99l0 377.18c0,222.09 198.77,229.98 340.37,229.98l0 2943.81c0,179.64 146.6,312.78 275.98,312.78l2483.84 0c129.38,0 275.98,-133.14 275.98,-312.78l0 -2943.81c140.59,0 340.37,-7.14 340.37,-229.98l0 -377.18c0,-135.82 -103.64,-229.99 -239.18,-229.99l-735.95 0 0 -321.98c0,-150.37 -144.33,-294.38 -294.38,-294.38l-1177.53 0c-149.04,0 -294.38,149.31 -294.38,275.98z"/>
   <path class="fil0" d="M1729.48 1968.67l0 2005.47c0,147.5 257.59,147.5 257.59,0l0 -2005.47c0,-144.18 -257.59,-144.61 -257.59,0z"/>
   <path class="fil0" d="M2483.84 1977.87l0 1977.87c0,75.73 48.92,126.78 123.4,132.26 60.57,4.46 134.18,-44.89 134.18,-113.86l0 -2005.47c0,-149.92 -257.58,-143.26 -257.58,9.2z"/>
   <path class="fil0" d="M975.14 1968.67l0 2005.47c0,142.13 257.58,164.65 257.58,-18.4l0 -1977.87c0,-33.45 -21.02,-62.45 -38.47,-81.12 -78.61,-84.13 -219.12,-20.88 -219.12,71.92z"/>
  </g>
 </g>
</svg>
